<?xml version="1.0" encoding="UTF-8"?>
<svg id="Layer_1" data-name="Layer 1" xmlns="http://www.w3.org/2000/svg" viewBox="0 0 801.94 93.23">
  <defs>
    <style>
      .cls-1 {
        fill: #fff;
      }
    </style>
  </defs>
  <path class="cls-1" d="M58.3,67.25c0,5.37-1.31,10-3.94,13.89-2.63,3.89-6.39,6.87-11.29,8.96s-10.78,3.13-17.64,3.13c-3.27,0-6.41-.19-9.43-.56-3.02-.37-5.87-.93-8.56-1.67-2.69-.74-5.17-1.65-7.44-2.73v-14.76c3.84,1.65,8.05,3.16,12.62,4.53,4.57,1.36,9.19,2.05,13.86,2.05,3.68,0,6.73-.5,9.15-1.49s4.22-2.38,5.39-4.15c1.18-1.78,1.77-3.89,1.77-6.33,0-2.6-.73-4.81-2.2-6.6-1.47-1.8-3.64-3.46-6.51-4.99s-6.4-3.16-10.57-4.9c-2.81-1.16-5.55-2.49-8.22-4-2.67-1.51-5.06-3.3-7.19-5.36-2.13-2.07-3.82-4.53-5.08-7.38-1.26-2.85-1.89-6.22-1.89-10.11,0-5.21,1.24-9.65,3.72-13.33S10.82,4.95,15.33,2.99C19.84,1.03,25.11,.04,31.14,.04c4.75,0,9.24,.51,13.46,1.52s8.41,2.45,12.59,4.31l-5.02,12.59c-3.8-1.57-7.43-2.81-10.88-3.72-3.45-.91-7-1.36-10.63-1.36-2.98,0-5.51,.46-7.6,1.36-2.09,.91-3.67,2.19-4.74,3.84-1.08,1.65-1.61,3.6-1.61,5.83,0,2.56,.64,4.71,1.92,6.45s3.28,3.34,5.98,4.81c2.71,1.47,6.19,3.09,10.45,4.87,4.92,2.11,9.1,4.31,12.56,6.6,3.45,2.29,6.1,5.02,7.94,8.19,1.84,3.16,2.76,7.14,2.76,11.94l-.02-.02Z"/>
  <path class="cls-1" d="M154.84,91.99l-8.37-24.43h-34.42l-8.37,24.43h-16.68L120.37,.96h17.92l33.36,91.03h-16.81Zm-12.4-37.89l-8.19-24.06c-.37-1.16-.87-2.74-1.49-4.74-.62-2-1.25-4.06-1.89-6.17-.64-2.11-1.17-3.89-1.58-5.33-.41,1.7-.93,3.63-1.55,5.8-.62,2.17-1.22,4.21-1.8,6.11s-1.01,3.35-1.3,4.34l-8.25,24.06h26.05Z"/>
  <path class="cls-1" d="M283.38,91.99h-19.53L220.44,20.37h-.56c.16,2.52,.31,5.17,.43,7.94s.25,5.6,.37,8.5c.12,2.89,.23,5.81,.31,8.74v46.45h-14.26V1.33h19.41l43.35,71.13h.43c-.08-2.27-.19-4.78-.31-7.5s-.24-5.54-.34-8.43-.2-5.71-.28-8.43V1.33h14.39V91.99Z"/>
  <path class="cls-1" d="M367.23,42.44h34.29v45.76c-4.75,1.61-9.67,2.85-14.76,3.72s-10.81,1.3-17.18,1.3c-9.18,0-16.95-1.82-23.32-5.46s-11.2-8.93-14.51-15.88-4.96-15.38-4.96-25.3,1.84-17.68,5.52-24.65c3.68-6.97,9.03-12.36,16.06-16.19,7.03-3.82,15.56-5.74,25.61-5.74,4.92,0,9.68,.5,14.29,1.49,4.61,.99,8.84,2.32,12.68,3.97l-5.46,12.9c-3.02-1.41-6.4-2.6-10.14-3.6-3.74-.99-7.64-1.49-11.69-1.49-6.33,0-11.77,1.39-16.34,4.15-4.57,2.77-8.08,6.66-10.54,11.66-2.46,5-3.69,10.89-3.69,17.67s.97,12.35,2.91,17.33,4.98,8.87,9.12,11.66c4.13,2.79,9.51,4.19,16.12,4.19,3.27,0,6.06-.17,8.37-.53,2.31-.35,4.44-.73,6.39-1.15v-22.45h-18.79v-13.39l.02,.03Z"/>
  <path class="cls-1" d="M518.15,1.33V59.99c0,6.33-1.34,11.99-4.03,16.99s-6.74,8.96-12.15,11.88c-5.42,2.92-12.24,4.37-20.46,4.37-11.66,0-20.55-3.05-26.67-9.15-6.12-6.1-9.18-14.21-9.18-24.34V1.33h15.75V58.13c0,7.57,1.74,13.08,5.21,16.56s8.62,5.21,15.44,5.21c4.75,0,8.63-.84,11.63-2.51,3-1.67,5.21-4.13,6.63-7.38,1.43-3.24,2.14-7.22,2.14-11.94V1.33h15.69Z"/>
  <path class="cls-1" d="M564.27,91.99V1.33h15.75V91.99h-15.75Z"/>
  <path class="cls-1" d="M703.6,91.99h-19.53l-43.41-71.62h-.56c.17,2.52,.31,5.17,.43,7.94s.25,5.6,.37,8.5c.12,2.89,.23,5.81,.31,8.74v46.45h-14.26V1.33h19.41l43.35,71.13h.43c-.08-2.27-.19-4.78-.31-7.5s-.24-5.54-.34-8.43c-.1-2.89-.2-5.71-.28-8.43V1.33h14.39V91.99h0Z"/>
  <path class="cls-1" d="M801.94,91.99h-51.53V1.33h51.53V14.48h-35.78v23.69h33.49v13.15h-33.49v27.41h35.78v13.27h0Z"/>
</svg>